<svg width="125" height="106" viewBox="0 0 125 106" fill="none" xmlns="http://www.w3.org/2000/svg">
<path d="M29.336 80V65.56L29.64 64.04V32.804L32.528 33.64L9.728 64.496L6.612 61.532H44.156V68.144H2.356V61.988L29.64 25.28H37.62V80H29.336ZM48.6655 80V70.576H58.0135V80H48.6655ZM68.8613 80C69.5707 71.3867 71.6227 62.9253 75.0173 54.616C78.412 46.3067 83.2253 38.0987 89.4573 29.992L89.6853 31.892H58.6013V25.28H96.6773V31.132C92.8267 36.7053 89.584 42.1773 86.9493 47.548C84.3147 52.868 82.2373 58.188 80.7173 63.508C79.248 68.828 78.2853 74.3253 77.8293 80H68.8613Z" fill="black"/>
<path d="M100.56 46.56L107.138 25.5H108.958L102.38 46.56H100.56ZM116.977 45.26C115.122 45.26 113.64 44.766 112.531 43.778C111.421 42.7727 110.745 41.4727 110.503 39.878H112.791C113.016 41.0047 113.493 41.8713 114.221 42.478C114.966 43.0847 115.867 43.388 116.925 43.388C118.034 43.388 118.97 43.0413 119.733 42.348C120.513 41.6547 120.903 40.554 120.903 39.046C120.903 37.538 120.513 36.4113 119.733 35.666C118.97 34.9033 117.999 34.522 116.821 34.522C115.971 34.522 115.235 34.6953 114.611 35.042C113.987 35.3887 113.571 35.796 113.363 36.264H111.439L112.297 26.28H122.177V28.152H113.571L114.299 27.372L113.701 34.912L113.207 34.73C113.519 34.21 114.021 33.7593 114.715 33.378C115.408 32.9967 116.257 32.806 117.263 32.806C118.424 32.806 119.447 33.0573 120.331 33.56C121.232 34.0627 121.934 34.782 122.437 35.718C122.957 36.6367 123.217 37.746 123.217 39.046C123.217 40.346 122.957 41.464 122.437 42.4C121.934 43.3187 121.215 44.0293 120.279 44.532C119.36 45.0173 118.259 45.26 116.977 45.26Z" fill="black"/>
</svg>
